<svg width="345" height="36" viewBox="0 0 345 36" fill="none" xmlns="http://www.w3.org/2000/svg">
<path fill-rule="evenodd" clip-rule="evenodd" d="M177.38 0.088656C173.5 0.49822 170.148 3.01295 168.53 6.72729C167.318 9.50983 167.182 13.0389 168.169 16.0975C170.131 22.181 176.345 28.5007 187.1 35.3495L187.958 35.896L188.377 35.6309C198.152 29.4557 204.153 23.8225 206.84 18.2998C207.936 16.0485 208.396 14.1414 208.396 11.8528C208.396 8.30012 207.15 5.23367 204.807 3.02144C202.592 0.930128 200.093 0 196.69 0C193.323 0 190.92 0.884159 188.457 3.02872L187.958 3.46327L187.459 3.02872C185.407 1.24159 183.463 0.367358 180.915 0.0856929C180.031 -0.0120931 178.32 -0.0106517 177.38 0.088656ZM189.707 9.74897C189.931 10.3201 190.242 11.5789 190.399 12.5393C190.566 13.5623 190.652 17.675 190.522 18.3765C190.41 18.974 190.138 19.3933 189.69 19.6566C188.975 20.0769 188.19 19.9994 187.596 19.4497C186.734 18.6524 186.811 17.4538 187.879 15.0563C189.007 12.5241 189.396 11.185 189.396 9.82761C189.396 9.10916 189.452 9.09498 189.707 9.74897ZM184.8 10.0309C184.5 11.472 184.578 13.4113 185.047 16.1551C185.382 18.1181 185.39 18.4152 185.119 18.9606C184.521 20.1629 182.846 20.2538 182.083 19.1254C181.858 18.7925 181.85 18.7479 181.854 17.8594C181.863 15.6411 182.874 12.375 184.147 10.4513C184.412 10.0507 184.832 9.53033 184.889 9.53033C184.898 9.53033 184.858 9.75562 184.8 10.0309ZM194.93 13.5522C195.429 14.9491 195.575 16.4535 195.359 17.9795C195.291 18.464 195.21 19.0587 195.18 19.3009C195.024 20.5588 194.017 21.2349 192.803 20.8969C192.432 20.7933 191.885 20.3144 191.739 19.9642C191.44 19.2489 191.687 18.6092 192.731 17.3951C193.536 16.459 193.89 15.9092 194.151 15.1881C194.368 14.5882 194.586 13.5793 194.586 13.1729C194.586 12.7643 194.69 12.8792 194.93 13.5522ZM178.229 17.9635C179.203 19.6467 179.975 20.2596 181.126 20.2637C181.716 20.2659 182.159 20.4523 182.501 20.8432C182.834 21.2239 182.952 21.6162 182.913 22.212C182.822 23.5844 181.502 24.2186 180.103 23.5619C178.794 22.9471 177.995 21.5875 177.742 19.5433C177.609 18.4671 177.657 17.2387 177.827 17.3444C177.865 17.3677 178.046 17.6463 178.229 17.9635ZM198.096 21.4379C197.631 22.8746 196.238 24.5806 195.16 25.0322C194.398 25.3516 193.583 25.0133 193.22 24.2263C192.95 23.6416 193.099 22.9565 193.597 22.4895C193.923 22.1839 194.191 22.104 194.89 22.1033C196.076 22.1022 197.041 21.8481 197.758 21.3475C197.968 21.2017 198.151 21.0937 198.167 21.1073C198.182 21.121 198.15 21.2698 198.096 21.4379ZM188.517 21.7289C189.834 22.274 191.708 23.9957 192.201 25.1138C192.398 25.5599 192.35 25.8226 192.042 25.9823C191.537 26.2444 191.112 26.234 188.5 25.8964L187.405 25.7549L185.745 26.1725C183.815 26.6583 183.205 26.7062 182.763 26.4072C182.607 26.3018 182.464 26.1192 182.422 25.9721C182.149 25.0194 184.772 22.3962 186.688 21.7051C187.28 21.4913 187.965 21.5002 188.517 21.7289Z" fill="#CB492B"/>
<path fill-rule="evenodd" clip-rule="evenodd" d="M110.245 0.188895C103.154 1.30845 98.4204 5.19787 98.408 9.91642C98.4031 11.6787 99.5609 14.5101 100.752 15.6478C103.328 18.1098 106.494 19.1067 112.733 19.4199C120.196 19.7947 122.792 21.0828 123.187 24.6062C123.354 26.0993 123.236 26.4403 122.107 27.7356C118.072 32.3623 108.17 32.2469 101.601 27.4964C100.674 26.826 99.8573 26.3488 99.7871 26.4361C99.7166 26.5234 99.0938 27.4364 98.4027 28.4653L97.1468 30.3354L98.4358 31.4276C100.203 32.9241 103.831 34.6219 106.734 35.3109C109.725 36.0209 115.68 36.0573 118.202 35.3808C122.774 34.1549 126.5 31.4986 127.863 28.493C128.91 26.184 128.796 22.8386 127.587 20.3945C125.654 16.4895 122.595 15.1099 114.618 14.5473C108.103 14.0875 106.725 13.7884 105.209 12.5044C104.281 11.7182 104.061 11.2395 104.061 10.009C104.061 8.09262 105.481 6.6386 108.315 5.6523C110.878 4.76052 116.581 4.76546 119.611 5.66255C121.698 6.2806 121.784 6.35729 122.016 7.81245L122.255 9.32114H124.469H126.683V6.33603V3.35054L124.493 2.3612C120.423 0.52184 114.172 -0.431057 110.245 0.188895ZM0 18.0529V35.896H2.45072H4.90143V27.7337V19.5714H13.1962H21.4909V17.2936V15.0157H13.1962H4.90143V9.8906V4.76546H15.4584H26.0153V2.48762V0.209775H13.0076H0V18.0529ZM31.2938 18.0293V35.896H33.7445H36.1952V30.3912V24.8864H40.8497C46.3287 24.8864 45.8921 24.5967 48.3971 29.8938C50.5104 34.363 51.8213 35.5634 54.8681 35.8177C55.9842 35.9108 57.329 35.8777 57.8573 35.7445C58.7399 35.5212 58.8172 35.3341 58.8172 33.4211V31.3403H57.2046C54.9522 31.3403 54.0545 30.5499 52.563 27.2542C51.85 25.6791 51.3112 24.3613 51.3659 24.326C51.4206 24.2911 52.2478 23.8112 53.2043 23.26C55.2011 22.1097 56.932 20.2517 58.1551 17.9473C58.8749 16.5905 59.0057 15.7614 59.0057 12.5481C59.0057 9.31696 58.8771 8.50909 58.1412 7.12113C56.8084 4.60791 54.812 2.61404 52.4683 1.455L50.3339 0.399595L40.8139 0.281148L31.2938 0.16232V18.0293ZM64.4727 18.0529V35.896H78.0459H91.6191V33.8079V31.7199H80.4966H69.3741V25.6457V19.5714H77.8574H86.3406V17.4834V15.3954H77.8574H69.3741V9.70078V4.00618H79.7425H90.111V2.10798V0.209775H77.2918H64.4727V18.0529ZM134.224 18.0529V35.896H136.675H139.125V27.7337V19.5714H149.117H159.108V27.7337V35.896H161.559H164.009V18.0529V0.209775H161.559H159.108V7.80258V15.3954H149.117H139.125V7.80258V0.209775H136.675H134.224V18.0529ZM213.024 18.0529V35.896H222.66C228.192 35.896 232.969 35.7247 233.876 35.4939C236.203 34.9024 238.688 32.9089 239.904 30.6592C242.112 26.572 241.515 22.0288 238.354 18.8456L236.582 17.0612L237.801 15.4531C241.669 10.3458 239.483 2.90902 233.479 0.751522C232.444 0.379854 229.505 0.238628 222.544 0.22648L213.024 0.209775V18.0529ZM246.957 18.0529V35.896H260.53H274.103V33.8079V31.7199H262.981H251.858V25.6529V19.5858L260.247 19.4837L268.636 19.3816V17.4834V15.5852L260.247 15.4831L251.858 15.381V9.69357V4.00618H262.227H272.595V2.10798V0.209775H259.776H246.957V18.0529ZM283.647 17.9485L278.38 35.7061L280.621 35.8204C281.854 35.883 282.947 35.8493 283.05 35.7452C283.154 35.6412 283.868 33.4545 284.638 30.8855L286.037 26.2151L294.712 26.1134L303.387 26.0116L304.83 30.9538L306.272 35.896H308.662C309.977 35.896 311.047 35.7676 311.04 35.6112C311.033 35.4548 308.679 27.4679 305.808 17.863L300.589 0.399595L294.751 0.295194L288.914 0.191173L283.647 17.9485ZM316.708 18.0297V35.896H319.148H321.589L321.693 30.4861L321.798 25.0762L326.23 24.9692C328.807 24.9069 330.971 25.0284 331.399 25.2588C331.803 25.4767 332.824 27.1365 333.667 28.947C336.252 34.5027 337.79 35.902 341.297 35.8906C344.349 35.8811 344.608 35.6845 344.608 33.3839V31.3403H342.795C341.798 31.3403 340.701 31.1265 340.358 30.8657C339.789 30.4337 336.897 24.5295 337.149 24.315C337.208 24.2649 337.833 23.9278 338.539 23.5664C340.74 22.4381 343.295 19.5365 344.177 17.1618C346.469 10.9938 343.831 4.22257 338.01 1.33503C336.178 0.425791 335.855 0.396179 326.417 0.281527L316.708 0.16308V18.0297ZM50.9628 6.1109C55.5947 9.38872 55.5193 15.9664 50.8135 19.1052C49.2948 20.1185 49.1188 20.1435 42.7281 20.2601L36.1952 20.3797V12.5481V4.71648L42.7624 4.83607L49.3295 4.95528L50.9628 6.1109ZM232.775 5.55815C235.813 7.96507 235.501 12.5879 232.162 14.638C231.061 15.3138 230.254 15.3927 224.429 15.3939L217.925 15.3954V10.0804V4.76546H224.849C231.3 4.76546 231.842 4.81975 232.775 5.55815ZM297.871 7.51785C298.312 9.03185 299.422 12.7736 300.338 15.8331C301.254 18.8926 302.004 21.4981 302.004 21.6226C302.004 21.7471 298.677 21.8493 294.611 21.8493C288.287 21.8493 287.249 21.7692 287.43 21.2954C287.546 20.9905 288.705 17.1467 290.005 12.7535L292.369 4.76546H294.72H297.07L297.871 7.51785ZM336.725 6.0942C338.908 7.64351 340.084 9.97602 340.084 12.7546C340.084 14.5814 339.888 15.2223 338.859 16.7545C338.106 17.8744 336.992 18.9173 335.972 19.4549C334.428 20.2688 333.86 20.3307 327.96 20.3307H321.609V12.5173V4.70396L328.365 4.82962L335.12 4.95528L336.725 6.0942ZM232.316 19.9625C233.084 20.1773 234.207 20.9317 234.842 21.6606C237.006 24.1419 236.876 27.5329 234.528 29.898L233.095 31.3403H225.51H217.925V25.7091C217.925 22.6116 218.038 19.9636 218.177 19.8246C218.58 19.4184 230.796 19.5376 232.316 19.9625Z" fill="black"/>
</svg>
