<svg width="89" height="79" viewBox="0 0 89 79" fill="none" xmlns="http://www.w3.org/2000/svg">
<path fill-rule="evenodd" clip-rule="evenodd" d="M21.4775 0.195115C13.0315 1.09649 5.73356 6.63091 2.2115 14.8055C-0.426994 20.9293 -0.72354 28.696 1.42407 35.4274C5.69566 48.8161 19.2243 62.7244 42.6378 77.7974L44.5057 79L45.419 78.4168C66.698 64.8262 79.7624 52.4288 85.613 40.2744C87.9981 35.3197 89 31.1225 89 26.0858C89 18.2669 86.2869 11.5183 81.1862 6.64959C76.3643 2.04703 70.9248 0 63.5156 0C56.1868 0 50.9546 1.94586 45.5933 6.66563L44.5069 7.62199L43.4205 6.66563C38.9527 2.73249 34.7207 0.808484 29.1736 0.188593C27.2479 -0.0266146 23.5248 -0.0234423 21.4775 0.195115ZM48.3147 21.4556C48.8004 22.7126 49.4795 25.4828 49.8201 27.5965C50.1828 29.848 50.3709 38.8992 50.0871 40.4431C49.8453 41.7581 49.2525 42.6808 48.2774 43.2603C46.7209 44.1853 45.0122 44.0147 43.7181 42.8051C41.8406 41.0503 42.0085 38.4124 44.334 33.136C46.7903 27.563 47.6358 24.616 47.6358 21.6287C47.6358 20.0475 47.7587 20.0163 48.3147 21.4556ZM37.6319 22.076C36.9782 25.2475 37.148 29.5156 38.1684 35.5543C38.8984 39.8745 38.9151 40.5282 38.3252 41.7287C37.0248 44.3746 33.3779 44.5747 31.7172 42.0912C31.2272 41.3587 31.2096 41.2605 31.2173 39.305C31.2367 34.423 33.4377 27.235 36.2094 23.0013C36.7864 22.1197 37.6999 20.9744 37.8259 20.9744C37.8442 20.9744 37.7569 21.4702 37.6319 22.076ZM59.685 29.8258C60.7714 32.9 61.0887 36.211 60.619 39.5694C60.4698 40.6357 60.2943 41.9444 60.2287 42.4776C59.8893 45.2458 57.697 46.734 55.0545 45.99C54.2453 45.7621 53.0553 44.7081 52.737 43.9373C52.0871 42.3632 52.6251 40.9553 54.8977 38.2832C56.65 36.223 57.4199 35.013 57.988 33.426C58.4606 32.1058 58.9344 29.8854 58.9344 28.991C58.9344 28.0918 59.1616 28.3445 59.685 29.8258ZM23.3261 39.5341C25.4468 43.2385 27.127 44.5873 29.6323 44.5965C30.9183 44.6013 31.8814 45.0114 32.6265 45.8717C33.352 46.7096 33.6091 47.5731 33.5234 48.8843C33.3259 51.9048 30.4522 53.3004 27.4061 51.8551C24.555 50.5021 22.8159 47.5098 22.2659 43.0109C21.9765 40.6424 22.0796 37.939 22.4507 38.1716C22.5326 38.2229 22.9266 38.8361 23.3261 39.5341ZM66.576 47.1806C65.5643 50.3424 62.5309 54.097 60.1851 55.0909C58.5256 55.794 56.7522 55.0493 55.9613 53.3173C55.3738 52.0304 55.698 50.5228 56.7832 49.495C57.4931 48.8224 58.0754 48.6467 59.5976 48.6451C62.1799 48.6426 64.2794 48.0834 65.8421 46.9818C66.2973 46.6608 66.697 46.423 66.7305 46.453C66.7639 46.4832 66.6944 46.8106 66.576 47.1806ZM45.7237 47.8211C48.5909 49.0207 52.6703 52.8098 53.7438 55.2705C54.1721 56.2523 54.0671 56.8304 53.3967 57.182C52.2967 57.7587 51.3732 57.736 45.6863 56.9929L43.3023 56.6815L39.6893 57.6006C35.4875 58.6696 34.1593 58.7752 33.1961 58.1171C32.8566 57.8851 32.5449 57.4833 32.4533 57.1595C31.8602 55.0627 37.5697 49.2897 41.7408 47.7686C43.0308 47.2982 44.5206 47.3177 45.7237 47.8211Z" fill="#5E5E5E"/>
</svg>
