<svg width="20" height="20" viewBox="0 0 20 20" fill="none" xmlns="http://www.w3.org/2000/svg">
<path d="M10 1C5.02943 1 1 5.02943 1 10C1 14.9705 5.02943 19 10 19C14.9705 19 19 14.9705 19 10C19 5.02943 14.9705 1 10 1Z" stroke="#202020" stroke-width="1.5" stroke-linecap="round" stroke-linejoin="round"/>
<path d="M3.04395 15.7112C3.04395 15.7112 5.05006 13.15 10 13.15C14.95 13.15 16.9562 15.7112 16.9562 15.7112" stroke="#202020" stroke-width="1.5" stroke-linecap="round" stroke-linejoin="round"/>
<path d="M10 9.99998C11.4913 9.99998 12.7 8.79119 12.7 7.29998C12.7 5.80881 11.4913 4.59998 10 4.59998C8.50884 4.59998 7.30005 5.80881 7.30005 7.29998C7.30005 8.79119 8.50884 9.99998 10 9.99998Z" stroke="#202020" stroke-width="1.5" stroke-linecap="round" stroke-linejoin="round"/>
</svg>
