<svg width="178" height="178" viewBox="0 0 178 178" fill="none" xmlns="http://www.w3.org/2000/svg">
<rect width="178" height="178" rx="89" fill="#888888"/>
<path fill-rule="evenodd" clip-rule="evenodd" d="M45.5417 23.368C29.5987 25.0681 15.8229 35.5064 9.17453 50.9242C4.19399 62.4742 3.63422 77.1228 7.68814 89.8187C15.7514 115.071 41.2886 141.303 85.4848 169.732L89.0108 172L90.7347 170.9C130.902 145.267 155.563 121.885 166.607 98.9605C171.109 89.6156 173 81.6994 173 72.1998C173 57.4528 167.879 44.7244 158.25 35.5416C149.148 26.8609 138.88 23 124.895 23C111.06 23 101.184 26.67 91.0638 35.5719L89.013 37.3757L86.9623 35.5719C78.5286 28.1537 70.5402 24.5249 60.0692 23.3557C56.4343 22.9498 49.4063 22.9558 45.5417 23.368ZM96.2008 63.4669C97.1176 65.8378 98.3996 71.0626 99.0424 75.0491C99.7272 79.2956 100.082 96.3669 99.5464 99.2787C99.0899 101.759 97.9711 103.499 96.1303 104.592C93.1923 106.337 89.9669 106.015 87.524 103.734C83.98 100.424 84.297 95.4487 88.6866 85.4971C93.3232 74.9859 94.9192 69.4277 94.9192 63.7933C94.9192 60.8111 95.1512 60.7522 96.2008 63.4669ZM76.0356 64.637C74.8015 70.6188 75.1221 78.6686 77.0481 90.058C78.4263 98.2062 78.4577 99.4392 77.3441 101.703C74.8894 106.694 68.0055 107.071 64.8706 102.387C63.9457 101.006 63.9125 100.82 63.9269 97.1322C63.9637 87.9245 68.1184 74.3673 73.3502 66.3823C74.4396 64.7195 76.1639 62.5593 76.4017 62.5593C76.4362 62.5593 76.2715 63.4944 76.0356 64.637ZM117.664 79.2537C119.715 85.0519 120.313 91.2967 119.427 97.6308C119.145 99.642 118.814 102.11 118.69 103.116C118.049 108.337 113.911 111.144 108.923 109.741C107.396 109.311 105.149 107.323 104.549 105.869C103.322 102.9 104.337 100.245 108.627 95.2051C111.935 91.3193 113.388 89.0371 114.46 86.0439C115.353 83.554 116.247 79.366 116.247 77.6793C116.247 75.9832 116.676 76.4599 117.664 79.2537ZM49.0313 97.5643C53.0343 104.551 56.206 107.095 60.9351 107.112C63.3626 107.121 65.1807 107.895 66.587 109.518C67.9566 111.098 68.4419 112.727 68.2801 115.199C67.9074 120.896 62.4829 123.529 56.7329 120.803C51.3511 118.251 48.0682 112.607 47.0301 104.122C46.4838 99.6547 46.6783 94.5558 47.3789 94.9946C47.5334 95.0914 48.2773 96.2479 49.0313 97.5643ZM130.672 111.986C128.762 117.95 123.036 125.031 118.608 126.906C115.475 128.232 112.128 126.827 110.635 123.56C109.526 121.133 110.138 118.29 112.186 116.351C113.526 115.083 114.625 114.751 117.499 114.748C122.373 114.744 126.336 113.689 129.286 111.611C130.146 111.006 130.9 110.557 130.963 110.614C131.026 110.671 130.895 111.288 130.672 111.986ZM91.3099 113.194C96.7222 115.457 104.423 122.603 106.449 127.244C107.258 129.096 107.059 130.186 105.794 130.85C103.717 131.937 101.974 131.894 91.2393 130.493L86.7392 129.906L79.9192 131.639C71.9875 133.655 69.4804 133.855 67.6623 132.613C67.0214 132.176 66.4331 131.418 66.2602 130.807C65.1407 126.853 75.9181 115.964 83.7917 113.095C86.2267 112.208 89.039 112.245 91.3099 113.194Z" fill="#CB492B"/>
</svg>
